# xmcd
#
# Track frame offsets:
#	150
#	14153
#	33187
#	49425
#	67155
#	87010
#	102884
#	112729
#	126131
#	140339
#	158222
#	166986
#
# Disc length: 2453 seconds
# Revision: 0
# Processed by: cddbd v1.5.2PL0 Copyright (c) Steve Scherf et al.
# Submitted via: dBpowerAMP V12.0
#
DISCID=9d09930c
DTITLE=Beccy Cole - Preloved
DYEAR=2010
DGENRE=Country
TTITLE0=Here You Come Again
TTITLE1=Insensitive
TTITLE2=Danny`s Song
TTITLE3=It`s Only the Beginning
TTITLE4=You Weren`t in Love With Me
TTITLE5=This Shirt
TTITLE6=You Ain`t Woman Enough to Take My Man
TTITLE7=Secret Love
TTITLE8=Only Love Can Break Your Heart
TTITLE9=Across the Great Divide
TTITLE10=Baby I Don`t Care (You`re So Square)
TTITLE11=Biggest Disappointment
EXTD=
EXTT0=
EXTT1=
EXTT2=
EXTT3=
EXTT4=
EXTT5=
EXTT6=
EXTT7=
EXTT8=
EXTT9=
EXTT10=
EXTT11=
PLAYORDER=
